# xmcd CD database file
#
# Track frame offsets:
#	182
#	19945
#	38270
#	56390
#	71252
#	90977
#	106625
#	122282
#	139650
#	155712
#
# Disc length: 2306 seconds
#
# Revision: 3
# Processed by: cddbd v1.5.2PL0 Copyright (c) Steve Scherf et al.
# Submitted via: CDex 1.51
#
DISCID=6909000a
DTITLE=Reba McEntire - Read My Mind
DYEAR=1994
DGENRE=Country
TTITLE0=EveryThing That You Want
TTITLE1=Read My Mind
TTITLE2=I Wan't Stand In Line
TTITLE3=I Wish That I Could Tell You
TTITLE4=She Thinks His Name Was John
TTITLE5=Why Haven't I Heard From You
TTITLE6=And Still
TTITLE7=The Heart Is A Lonely Hunter
TTITLE8=I Wouldn't Wanna Be You
TTITLE9=Till You Love Me
EXTD=YEAR: 1994
EXTT0=
EXTT1=
EXTT2=
EXTT3=
EXTT4=
EXTT5=
EXTT6=
EXTT7=
EXTT8=
EXTT9=
PLAYORDER=
